<?xml version="1.0" encoding="utf-8"?><!-- Uploaded to: SVG Repo, www.svgrepo.com, Generator: SVG Repo Mixer Tools -->
<svg fill="#000000" width="800px" height="800px" viewBox="0 0 24 24" id="timer-error" data-name="Flat Color" xmlns="http://www.w3.org/2000/svg" class="icon flat-color"><path id="secondary" d="M17.3,9.2a1,1,0,0,1-.7-.3,1,1,0,0,1,0-1.41L18.09,6a1,1,0,1,1,1.42,1.42L18,8.9A1,1,0,0,1,17.3,9.2ZM7.4,8.9a1,1,0,0,0,0-1.41L5.91,6A1,1,0,0,0,4.49,7.41L6,8.9a1,1,0,0,0,.71.3A1,1,0,0,0,7.4,8.9ZM13,6V4h2a1,1,0,0,0,0-2H9A1,1,0,0,0,9,4h2V6a1,1,0,0,0,2,0Z" style="fill: rgb(44, 169, 188);"></path><circle id="primary" cx="12" cy="13.5" r="8.5" style="fill: rgb(0, 0, 0);"></circle><path id="secondary-2" data-name="secondary" d="M12,15.5A1.5,1.5,0,1,0,13.5,17,1.5,1.5,0,0,0,12,15.5Zm1-3v-3a1,1,0,0,0-2,0v3a1,1,0,0,0,2,0Z" style="fill: rgb(44, 169, 188);"></path></svg>